<?xml version="1.0" encoding="utf-8"?>
<!-- Generator: Adobe Illustrator 16.0.4, SVG Export Plug-In . SVG Version: 6.00 Build 0)  -->
<!DOCTYPE svg PUBLIC "-//W3C//DTD SVG 1.1//EN" "http://www.w3.org/Graphics/SVG/1.1/DTD/svg11.dtd" [
	<!ENTITY ns_flows "http://ns.adobe.com/Flows/1.0/">
	<!ENTITY ns_extend "http://ns.adobe.com/Extensibility/1.0/">
	<!ENTITY ns_ai "http://ns.adobe.com/AdobeIllustrator/10.0/">
	<!ENTITY ns_graphs "http://ns.adobe.com/Graphs/1.0/">
]>
<svg version="1.1" id="Ebene_1" xmlns:x="&ns_extend;" xmlns:i="&ns_ai;" xmlns:graph="&ns_graphs;"
	 xmlns="http://www.w3.org/2000/svg" xmlns:xlink="http://www.w3.org/1999/xlink" xmlns:a="http://ns.adobe.com/AdobeSVGViewerExtensions/3.0/"
	 x="0px" y="0px" width="85.3px" height="16.3px" viewBox="0 0 85.3 16.3" style="enable-background:new 0 0 85.3 16.3;"
	 xml:space="preserve">
<style type="text/css">
<![CDATA[
	
		.st0{fill-rule:evenodd;clip-rule:evenodd;fill:#EDC569;stroke:#080200;stroke-width:0.35;stroke-linecap:round;stroke-linejoin:round;stroke-miterlimit:3.8637;}
]]>
</style>
<g>
	<g>
		<polygon class="st0" points="6.9,11.74 8.74,11.74 8.43,15.35 6.58,15.35 		"/>
		<polygon class="st0" points="6.98,3.09 8.74,3.09 8.43,8.71 6.58,8.71 		"/>
		<g>
			<rect x="6.58" y="8.72" class="st0" width="1.84" height="6.62"/>
		</g>
		<polygon class="st0" points="8.74,3.1 8.73,11.95 8.43,15.31 8.42,8.69 		"/>
		<polygon class="st0" points="78.4,11.72 76.56,11.72 76.87,15.34 78.71,15.34 		"/>
		<polygon class="st0" points="78.32,3.08 76.56,3.08 76.87,8.69 78.71,8.69 		"/>
		<g>
			<rect x="76.87" y="8.7" class="st0" width="1.84" height="6.62"/>
		</g>
		<polygon class="st0" points="76.56,3.09 76.57,11.93 76.87,15.3 76.88,8.67 		"/>
		<polygon class="st0" points="8.42,10.28 8.51,8.82 76.81,8.82 76.92,10.28 		"/>
		<rect x="8.43" y="10.29" class="st0" width="68.48" height="1.09"/>
	</g>
	<g>
		<polygon class="st0" points="0.3,8.54 0.69,0.95 84.61,0.95 85,8.54 		"/>
		<rect x="0.3" y="8.55" class="st0" width="84.71" height="1.84"/>
	</g>
</g>
</svg>
