<?xml version="1.0" encoding="utf-8"?>
<!-- Generator: Adobe Illustrator 16.0.4, SVG Export Plug-In . SVG Version: 6.00 Build 0)  -->
<!DOCTYPE svg PUBLIC "-//W3C//DTD SVG 1.1//EN" "http://www.w3.org/Graphics/SVG/1.1/DTD/svg11.dtd" [
	<!ENTITY ns_flows "http://ns.adobe.com/Flows/1.0/">
	<!ENTITY ns_extend "http://ns.adobe.com/Extensibility/1.0/">
	<!ENTITY ns_ai "http://ns.adobe.com/AdobeIllustrator/10.0/">
	<!ENTITY ns_graphs "http://ns.adobe.com/Graphs/1.0/">
]>
<svg version="1.1" id="Ebene_1" xmlns:x="&ns_extend;" xmlns:i="&ns_ai;" xmlns:graph="&ns_graphs;"
	 xmlns="http://www.w3.org/2000/svg" xmlns:xlink="http://www.w3.org/1999/xlink" xmlns:a="http://ns.adobe.com/AdobeSVGViewerExtensions/3.0/"
	 x="0px" y="0px" width="32.8px" height="51.1px" viewBox="0 0 32.8 51.1" style="enable-background:new 0 0 32.8 51.1;"
	 xml:space="preserve">
<style type="text/css">
<![CDATA[
	.st0{fill:#1A1A18;}
	.st1{fill-rule:evenodd;clip-rule:evenodd;fill:#1A1A18;}
	.st2{fill:#FBCDAA;}
	.st3{fill-rule:evenodd;clip-rule:evenodd;fill:#FBCDAA;}
	.st4{fill-rule:evenodd;clip-rule:evenodd;fill:#FFFFFF;}
	.st5{fill-rule:evenodd;clip-rule:evenodd;fill:#0068B4;}
]]>
</style>
<path class="st0" d="M32.26,23.84c-0.09-0.2-0.68-1.09-0.68-1.09l-1.48-1.31l-0.49-0.87l-0.79-1.51l-1.07-2.05l-1.26-2.33
	l-0.57-0.82c0,0,0.05-0.07,0.13-0.16c0.08-0.09,0-0.18,0-0.18s-1.08-1.43-1.32-1.75s-0.87-1.08-1.14-1.33s-1.05-1.09-1.25-1.23
	c-0.2-0.15-0.67-0.34-0.92-0.44c-0.25-0.09-0.77-0.2-1.16-0.28s-1.06-0.24-1.06-0.24l-0.19-0.21l-0.22-0.28l-0.07-0.33l0.23-0.85
	l0.32-0.22l0.16-0.4l0.03-0.46l0.37-0.72L19.8,4.31l0.3-0.47l-0.27-0.53l0.18-0.6l-0.2-0.12L19.74,2.3l-0.3-0.66l-0.5-0.58
	l-0.4-0.11l-0.12-0.16l-0.59,0.05l-0.66-0.26l-0.87-0.21L16.21,0.5l-0.79,0.09l-0.25,0.27l-0.15-0.13l-0.4,0.45l-0.51,0.49
	l-0.67,1.24l0.1,0.12l0.09,0.52l-0.34,0.52l0.37,0.25l0.07,0.71l0.02,0.53l0.37,0.53l0.15,0.42l0.22,0.24l0.11,0.19l0.18,0.49
	l0.13,0.54l-0.07,0.11l-0.08,0.07c0,0-1.42,0.29-1.77,0.38s-1.1,0.36-1.41,0.51s-0.67,0.42-0.89,0.59S10,10.23,9.74,10.48
	s-1.21,1.23-1.21,1.23l-1.03,1.12l-0.81,1.03l0.11,0.17l-0.65,1.17l-1.22,2.22l-0.83,1.53l-0.7,1.39l-0.73,1.31
	c0,0-1.24,1.08-1.41,1.27s-0.61,0.77-0.69,1.02s-0.15,0.85-0.12,1.06s0.02,0.38,0.1,0.48s0.38,0.17,0.38,0.17s0.26,0.18,0.34,0.22
	S1.6,25.9,1.6,25.9l0.51-0.26c0,0,0.28-0.02,0.41-0.04s0.28-0.12,0.28-0.12l0.64-0.64c0,0,0.49-0.49,0.56-0.62s0.12-0.42,0.12-0.42
	l0.3-1.24l0.26-0.42l0.91-1.16l1.91-2.48l1.11-1.32l0.66-0.83l0.74,0.64l0.14,0.04l1.08-1.12l0.41-0.47c0,0,0.09,0.47,0.12,0.84
	s0.08,0.98,0.08,0.98l0.06,2.47l-0.09,1.75v0.25l-0.2,0.33c0,0-0.07,0.28-0.05,0.38s0.02,0.23-0.06,0.36s-0.34,0.48-0.34,0.48
	s-0.29,0.53-0.46,0.95s-0.64,1.67-0.64,1.67l-0.47,1.44l-0.91,2.56l-0.69,2c0,0-0.36,1.11-0.41,1.22s-0.02,0.17,0.12,0.23
	s0.42,0.17,0.42,0.17l-0.13,0.8l-0.15,1.15l-0.12,0.55l-0.17,0.31c0,0-0.22,0.26-0.29,0.51c-0.03,0.09-0.08,0.19-0.1,0.32
	c-0.03,0.22-0.02,0.48-0.02,0.48l0.05,0.28l-0.13,0.55l-0.4,2.29l-0.67,3.87L5.99,44.8c0,0-0.21,0.12-0.25,0.21s0,0.3,0,0.3
	l-0.28,0.24l-0.14,0.4l-0.46,0.62l-0.82,0.88c0,0-0.64,0.86-0.81,1.12s-0.46,0.89-0.46,0.89s-0.08,0.34-0.02,0.53s0.1,0.3,0.25,0.42
	s0.38,0.16,0.38,0.16l0.15,0.07c0,0,0.09,0.02,0.28,0.02s0.81-0.08,0.81-0.08l0.16-0.13c0,0,0.06,0.08,0.16,0.12
	s0.23-0.12,0.28-0.19s0.02-0.19,0.02-0.19l0.3-0.17l0.25-0.16c0,0,0.09,0.06,0.16,0.06s0.25-0.12,0.27-0.17s-0.02-0.2-0.02-0.2
	l1.2-0.89l0.36-0.26l0.12-0.14c0,0,0.17,0.12,0.22,0.11s0.13-0.09,0.16-0.17s0-0.19,0-0.19l0.2-0.23l0.2-0.23
	c0,0,0.08,0.07,0.12,0.03c0.03-0.03,0.06-0.03,0.11-0.17s-0.05-0.25-0.05-0.25l0.19-0.4l0.03-0.78l-0.08-0.25l0.05-0.09l-0.03-0.17
	l-0.07-0.42c0,0,0.04-0.11,0.18-0.8s0.34-1.04,0.54-1.47s0.54-1.28,0.54-1.28l0.57-1.53l0.23-0.78l0.06-0.45l0.25-0.38
	c0,0,0.15-0.32,0.19-0.62s-0.01-0.72-0.01-0.72l0.2-0.75c0,0,0.25-0.44,0.48-0.8s0.58-0.83,0.58-0.83l0.54,0.12l1.31,0.23l0.51-1.71
	l0.63-2.02l0.28-0.81l0.12,0.13l0.54,1.66l0.49,1.36l0.45,1.36l0.14,0.07l1.9-0.42l0.51,0.86l0.39,0.75l0.14,0.75l0.02,0.73
	l0.17,0.62l0.25,0.31l0.04,0.52l0.21,0.79l0.53,1.54l0.59,1.48l0.44,1.29l0.16,0.81c0,0-0.05,0.3-0.08,0.42
	c-0.03,0.12,0.01,0.26,0.01,0.26l-0.08,0.25c0,0-0.02,0.62,0.01,0.78s0.39,0.65,0.39,0.65s0.06,0.33,0.07,0.38s0.18,0.19,0.21,0.19
	s0.16-0.09,0.16-0.09l0.45,0.44l0.41,0.41c0,0-0.05,0.11-0.03,0.17s0.19,0.16,0.22,0.17s0.14-0.06,0.14-0.06s0.6,0.43,0.77,0.56
	c0.25,0.2,0.48,0.33,0.48,0.33s-0.03,0.16-0.02,0.2s0.17,0.14,0.22,0.14s0.16-0.08,0.16-0.08l0.27,0.14c0,0,0.03,0.16,0.06,0.22
	c0.03,0.06,0.12,0.09,0.19,0.11s0.17-0.09,0.17-0.09l0.21,0.09c0,0,0.5,0.08,0.64,0.08s0.42-0.08,0.42-0.08s0.22-0.05,0.38-0.16
	s0.28-0.33,0.3-0.44s-0.01-0.17-0.05-0.39c-0.03-0.23-0.3-0.66-0.45-0.95c-0.12-0.23-0.8-1.19-0.8-1.19l-0.84-1.06l-0.4-0.43
	l-0.13-0.4l-0.28-0.25c0,0,0.05-0.21,0.01-0.3c-0.04-0.09-0.24-0.21-0.24-0.21L26,44.76l-0.59-3.88l-0.31-2.3l-0.16-0.54l-0.01-0.35
	l-0.03-0.74l-0.28-0.51l-0.16-0.32l-0.11-0.55l-0.12-1.16l-0.12-0.8c0,0,0.16-0.06,0.24-0.12c0.04-0.03,0.11-0.06,0.09-0.12
	c-0.06-0.25-0.22-0.77-0.22-0.77l-0.47-1.53l-0.58-2.06l-0.51-1.65c0,0-0.69-2.13-0.85-2.57s-0.34-0.92-0.45-1.08
	s-0.17-0.23-0.17-0.23s0.12-0.17,0.08-0.41c-0.04-0.23-0.21-0.39-0.22-0.44s0-0.25,0-0.25l0.02-2.72l0.16-2.03l0.2-1.98l0.92,0.94
	c0,0,0.1,0.11,0.17,0.17s0.2,0.02,0.2,0.02l0.81-0.61l0.49,0.54l1.27,1.59l2.2,2.86l0.8,1.11l0.32,1.32c0,0,0.08,0.31,0.18,0.5
	s0.56,0.63,0.56,0.63s0.55,0.62,0.64,0.65s0.48,0.04,0.48,0.04l0.19-0.04c0,0,0.36,0.36,0.5,0.39c0.15,0.03,0.35-0.03,0.35-0.03
	l0.35-0.22c0,0,0.25-0.08,0.34-0.15s0.16-0.44,0.16-0.44S32.35,24.04,32.26,23.84z"/>
<path id="player-jersey" class="st5" d="M8.94,15.46l1.13,0.98l1.14-1.26l0.49-0.66c0,0,0.28-0.31,0.37-0.41s0.17-0.22,0.3-0.17
	s0.18,0.03,0.17,0.17s-0.42,0.82-0.42,0.82s-0.02,0.13,0.01,0.31s0.15,1.37,0.17,1.73s0,0.91,0.03,1.25s0.04,1.3,0.03,1.61
	s-0.05,1.74-0.05,1.74s0.32,0.04,0.49,0.02s0.17-0.1,0.25-0.31c0.09-0.25,0.21-0.67,0.24-1s0.02-1.27,0.02-1.34s0.2-0.28,0.12-0.2
	s0.09-0.05,0.19,0.06s0.28,1.1,0.29,1.32s-0.12,0.44-0.17,0.71s-0.2,0.68-0.03,0.85s0.82,0.58,1.23,0.68s0.87,0.12,1.27,0.16
	s0.92,0.09,1.3,0.11c0.38,0.02,1.09-0.02,1.59-0.06s1-0.09,1.16-0.11s0.19-0.05,0.22-0.23s0.05-1.19,0.09-1.66s0.14-2.62,0.19-3.2
	s0.15-2.12,0.15-2.12s-0.08-0.29-0.19-0.49s-0.33-0.53-0.35-0.61s0.13-0.16,0.31-0.12s0.24,0.15,0.35,0.28s0.4,0.48,0.54,0.66
	c0.11,0.14,0.75,0.84,1,1.12c0.06,0.07,0.09,0.11,0.21,0.02s0.62-0.51,0.97-0.83s0.98-0.95,1.2-1.19c0.15-0.16,0.34-0.32,0.42-0.39
	s-0.06-0.25-0.06-0.25s-1.03-1.43-1.28-1.73s-0.8-0.94-0.99-1.14s-0.97-1-1.15-1.1s-0.42-0.24-0.68-0.33s-0.65-0.13-1.08-0.24
	s-1.06-0.2-1.06-0.2s-0.28,0.6-0.53,1.12s-0.52,0.97-0.71,1.31c-0.19,0.34-0.55,0.89-0.55,0.89l-0.44,0.61l-0.54-0.66l-0.59-0.91
	c0,0-0.53-0.87-0.73-1.41s-0.32-1.04-0.32-1.04s-1.21,0.21-1.59,0.29s-1.12,0.38-1.4,0.54s-1.08,0.81-1.43,1.12s-1.47,1.5-1.69,1.71
	s-1.28,1.46-1.28,1.46l0.52,0.56L8.94,15.46z"/>
<path class="st1" d="M18.79,19.52c0.06-0.25-0.05-0.61-0.06-0.99c-0.01-0.37,0.11-0.73,0.29-0.9s0.84-0.69,0.84-0.69
	s0.17-0.2,0.24-0.39c0.07-0.19,0.01-0.46-0.11-0.47s-0.23,0.02-0.32,0.07s-0.06,0.18-0.08,0.35s-0.14,0.34-0.24,0.39
	s-0.66,0.02-0.79,0.18s-0.25,0.89-0.25,1.06s0.02,0.71,0.06,0.99s0.17,0.75,0.17,0.75L18.79,19.52
	C18.79,19.52,18.7,19.87,18.79,19.52z"/>
<polygon id="skin-leg-r" class="st3" points="10.93,34.21 12,34.45 12.17,34.52 11.58,35.42 11.14,36.14 10.94,36.82 9.98,36.69 
	9.1,36.49 8.24,36.15 8.49,34.39 8.64,33.67 9.56,33.91 "/>
<path id="player-sock-r" class="st5" d="M9.95,38.61c0.11,0.08,0.45,0.04,0.52,0.12s0.04,0.61-0.11,0.98s-0.57,1.47-0.57,1.47
	l-1.02,2.36l-0.21,0.9l-0.14,0.8L8.2,45.58l-0.29-0.12l-0.39-0.41l-0.43-0.31l-0.25-0.07l-0.33-0.04c0,0,0.03-0.4,0.07-0.66
	s0.21-1.11,0.3-1.69s0.48-2.69,0.55-3.06s0.1-0.78,0.16-0.92s0.34-0.1,0.46-0.11s0.16-0.03,0.17-0.12s-0.29-0.22-0.44-0.42
	s-0.05-0.56-0.05-0.56s0.16-0.38,0.33-0.43s0.35,0.12,0.69,0.23s0.75,0.2,1.22,0.27s0.79,0.05,0.89,0.17s0.1,0.24,0.06,0.45
	s-0.11,0.31-0.22,0.38s-0.7-0.02-0.77,0.08S9.84,38.53,9.95,38.61z"/>
<path class="st1" d="M9.02,35.68c-0.14-0.05-0.18-0.27-0.18-0.27s0-0.12,0.13-0.09s0.54,0.16,0.54,0.22s0.02,0.26-0.09,0.26
	S9.02,35.68,9.02,35.68z"/>
<path id="player-shorts" class="st4" d="M17.94,34.56l-0.19-0.45l-1.26-3.75l-0.35-1.16l-0.01-0.86l0.44-0.12
	c0,0,0.72-0.38,0.91-0.47s0.43-0.2,0.49-0.29c0.04-0.07-0.45-0.15-0.63-0.1s-0.83,0.47-0.92,0.4s-0.25-0.69-0.39-0.83
	s-0.6-0.31-0.61-0.16s0.45,0.71,0.52,0.89s-0.99,0.03-1.16,0.1c-0.07,0.03-0.13,0.28,0.01,0.32s0.72,0.08,0.8,0.2
	s0.16,1.43,0.16,1.43l-0.52,1.53l-0.96,3.21l-0.7-0.13l-1.48-0.33l-2.4-0.57c0,0-1.28-0.35-1.39-0.36s-0.21-0.09-0.17-0.2
	s0.45-1.3,0.45-1.3s0.87-2.58,1.04-3.06s0.47-1.33,0.72-2.03s0.56-1.62,0.56-1.62s0.46-1.05,0.59-1.25s0.27-0.42,0.41-0.47
	s0.38,0.05,0.73,0.09s0.79,0.23,0.88,0.22s0-0.33-0.17-0.47s-1-0.23-1.2-0.28S12,22.41,12,22.41s0.01-0.27,0.16-0.31
	s0.75,0.1,0.95,0.16s0.29,0.06,0.5,0.12s0.95,0.43,1.24,0.49s1.33,0.17,1.91,0.2s1.38,0.02,1.38,0.02l1-0.05l0.62-0.06
	c0,0,0.61-0.12,0.75-0.11s0.21,0.14,0.23,0.28s-0.03,0.23-0.14,0.27s-0.66,0.02-0.66,0.02s-1.22,0.06-1.36,0.11
	s-0.24,0.11-0.25,0.19s0,0.14,0.14,0.16s1.29,0.06,1.54,0.06s0.42-0.08,0.52-0.07s0.3,0.02,0.38,0.1c0.08,0.08,0.14,0.16,0.22,0.34
	c0.08,0.19,0.67,1.71,0.67,1.71l0.56,1.76l0.98,3.28c0,0,0.5,1.7,0.57,1.86s-0.01,0.17-0.28,0.27s-0.77,0.23-0.77,0.23l-2.72,0.61
	L17.94,34.56z"/>
<polygon id="skin-arm-r" class="st2" points="8.09,15.32 7.14,14.32 6.38,15.51 3.16,21.64 2.88,22.05 2.67,22.24 1.54,23.22 
	0.86,24.19 0.77,25.14 0.98,25.26 1.12,25.09 1.21,24.58 1.29,24.45 1.23,25.22 1.24,25.51 1.36,25.59 1.55,25.48 1.78,24.51 
	1.97,24.03 2.04,23.99 2.18,23.93 2.58,23.85 2.68,24 2.6,24.33 2.29,24.87 2.28,25.15 2.52,25.14 3.02,24.61 3.61,23.92 
	3.84,23.06 3.95,22.61 4.09,22.29 7.07,18.35 8.1,17.07 8.86,16.09 "/>
<path id="skin-arm-l" class="st2" d="M24.59,15.13l1-0.95l0.62,0.84l3.35,6.31l0.28,0.42l0.21,0.19l1.12,0.99l0.67,0.97l0.09,0.95
	c0,0-0.11,0.11-0.21,0.12s-0.14-0.16-0.14-0.16l-0.09-0.51l-0.08-0.13l0.05,0.76l-0.01,0.29c0,0-0.01,0.08-0.12,0.08
	c-0.11,0-0.19-0.12-0.19-0.12l-0.23-0.96l-0.19-0.49l-0.2-0.1l-0.4-0.08l-0.11,0.15l0.09,0.33l0.3,0.54c0,0,0.06,0.23,0.01,0.27
	s-0.13,0.05-0.24-0.01s-0.5-0.53-0.5-0.53s-0.48-0.44-0.58-0.69s-0.22-0.86-0.22-0.86l-0.11-0.45l-0.14-0.33l-3.03-4.01l-1.12-1.41
	l-0.52-0.75L24.59,15.13z"/>
<polygon class="st4" points="6.53,48.45 6.96,48.03 7.36,48.03 6.64,48.58 "/>
<polygon id="skin-leg-l" class="st3" points="21.39,34.21 20.29,34.45 20.11,34.51 20.62,35.38 21.05,36.11 21.24,36.8 22.2,36.69 
	23.08,36.51 23.95,36.18 23.74,34.42 23.61,33.69 22.67,33.92 "/>
<polygon id="player-sock-l" class="st5" points="22.19,38.61 21.67,38.73 21.75,39.71 22.3,41.19 23.27,43.58 23.46,44.48 
	23.58,45.28 23.8,45.61 24.09,45.5 24.49,45.1 24.93,44.8 25.18,44.74 25.51,44.71 25.42,43.96 25.19,42.28 24.74,39.14 
	24.56,38.35 24.11,38.24 23.94,38.12 24.43,37.69 24.46,37.15 24.15,36.61 23.44,36.94 22.21,37.18 21.33,37.26 21.25,37.78 
	21.46,38.17 22.23,38.26 "/>
<path class="st1" d="M22.95,35.76c0.1,0.04,0.1,0.04,0.23-0.06c0.13-0.1,0.19-0.26,0.19-0.26s0.03-0.1-0.13-0.1
	s-0.51,0.14-0.55,0.21s0.06,0.15,0.06,0.15S22.85,35.72,22.95,35.76z"/>
<polygon class="st4" points="24.95,48.05 24.58,48.07 25.24,48.63 25.42,48.52 "/>
<path id="skin-face" class="st3" d="M19.06,5.67l-0.41,0.82L18.3,7.63c0,0-0.21,0.38-0.31,0.57s-0.35,0.49-0.48,0.57
	c-0.13,0.08-0.34,0.15-0.34,0.15s-0.5,0.08-0.76-0.01s-0.91-0.77-0.91-0.77s-0.25-0.42-0.39-0.75s-0.3-0.91-0.3-0.91l0.13-0.11
	L14.7,6.11l-0.24-0.01l-0.43-0.75l0.01-0.12l0.14-0.23l-0.02,0.36l0.23,0.25l0.11-0.02l0.01-0.17l0.14-0.92l0.24-0.56l0.3-0.39
	l0.47-0.2l0.37-0.1l0.2-0.06l0.33,0.13l0.21-0.18l0.84-0.03l0.23,0.13l0.68,0.55l0.1,0.34l0.17,0.31l-0.02,0.24l0.22,0.25l0.14-0.23
	l0.01-0.12l0.12,0.01l-0.01,0.12L19.06,5.67L19.06,5.67z"/>
<path id="skin-neck" class="st3" d="M16.11,10.85c-0.31-0.5-0.56-0.95-0.69-1.34c-0.16-0.48-0.22-0.92-0.22-0.92l0.08-0.12
	c0,0,0.09,0.08,0.34,0.36c0.13,0.15,0.31,0.24,0.41,0.31c0.25,0.19,0.42,0.23,0.67,0.23s0.61-0.05,0.77-0.12s0.35-0.15,0.55-0.43
	s0.37-0.68,0.37-0.68l0.27,0.48c0,0-0.08,0.28-0.36,0.88s-0.65,1.2-0.65,1.2l-0.77,1.25C16.88,11.94,16.42,11.35,16.11,10.85z"/>
<polygon class="st1" points="16.81,6.78 16.82,6.66 16.92,6.59 17.12,6.68 16.87,6.78 "/>
<polygon class="st1" points="16.3,6.75 16.23,6.66 16.36,6.55 16.59,6.69 16.4,6.83 "/>
<path class="st1" d="M18.13,4.79L17.94,4.9c0,0,0.09,0.22,0.02,0.31c-0.07,0.09-0.31,0.17-0.42,0.14S17.3,5.17,17.3,5.17l-0.15,0.77
	l0-0.96l0.16-0.19l0.06-0.11l0.71-0.06l0.22,0.11l-0.06,0.11L18.13,4.79L18.13,4.79z"/>
<path class="st1" d="M15.64,4.82c0,0-0.15-0.17-0.26-0.17S15,4.87,15,4.87l0.05-0.11c0,0,0.27-0.2,0.38-0.22s0.49,0.11,0.49,0.11
	l0.44,0.22l-0.05,0.11c0,0-0.16,0.28-0.33,0.31s-0.38-0.04-0.44-0.15S15.64,4.82,15.64,4.82z"/>
<polygon class="st1" points="16.92,7.51 16.86,7.66 16.96,7.66 17.16,7.75 17.19,7.83 17.04,7.91 16.59,7.88 16.48,7.63 16.36,7.53 
	16.05,7.37 15.92,7.29 15.93,7.23 16.11,7.24 16.7,7.32 17.39,7.26 17.46,7.33 17.19,7.46 "/>
<path id="hair" class="st1" d="M19.75,3.82l-0.23-0.48l0.16-0.51l-0.18-0.1l-0.08-0.34l-0.28-0.61l-0.43-0.45l-0.36-0.09l-0.11-0.14
	l-0.46,0.06l-0.64-0.23l-0.7-0.22L16.36,0.8l-0.73,0.08l-0.45,0.34l-0.13-0.11l-0.26,0.36l-0.38,0.34l-0.62,1.05l0.09,0.11
	l0.08,0.53l-0.25,0.42L14,4.16l0.01,0.5l0.11-0.15l0.19,0.07c0,0,0.17-0.54,0.24-0.69c0.12-0.23,0.3-0.52,0.43-0.63
	c0.13-0.11,0.65-0.28,0.65-0.28l0.36-0.09l0.2-0.05l0.25,0.14l0.15-0.16l1.05-0.04c0,0,0.14,0.06,0.23,0.13
	c0.09,0.07,0.83,0.58,0.85,0.65c0.02,0.07,0.05,0.28,0.12,0.39c0.08,0.11,0.12,0.18,0.15,0.26c0,0.01,0.18-0.07,0.18-0.07
	s0.32,0.14,0.27,0.38c0.02,0.06,0.01,0.2,0.04,0.26l0.09-0.19l-0.03-0.46L19.75,3.82z"/>
</svg>
